<?xml version="1.0" encoding="utf-8"?>
<!-- Generator: Adobe Illustrator 16.0.4, SVG Export Plug-In . SVG Version: 6.00 Build 0)  -->
<!DOCTYPE svg PUBLIC "-//W3C//DTD SVG 1.1//EN" "http://www.w3.org/Graphics/SVG/1.1/DTD/svg11.dtd">
<svg version="1.1" id="Layer_1" xmlns="http://www.w3.org/2000/svg" xmlns:xlink="http://www.w3.org/1999/xlink" x="0px" y="0px"
	 width="78.75px" height="78px" viewBox="0 0 78.75 78" enable-background="new 0 0 78.75 78" xml:space="preserve">
<g>
	<path fill="#295BCC" d="M39.751,77.455c-21.125,0-38.311-17.187-38.311-38.311S18.626,0.833,39.751,0.833
		c21.124,0,38.311,17.186,38.311,38.311S60.875,77.455,39.751,77.455z M39.751,3.667c-19.562,0-35.478,15.915-35.478,35.478
		c0,19.562,15.915,35.477,35.478,35.477s35.477-15.915,35.477-35.477C75.228,19.582,59.313,3.667,39.751,3.667z"/>
</g>
<g enable-background="new    ">
	<path fill="#295BCC" d="M29.772,50.627c0.766,0.113,1.525,0.276,2.277,0.489c0.751,0.213,1.426,0.462,2.021,0.745v1.617H19.898
		v-1.617c0.539-0.312,1.113-0.567,1.724-0.767c0.61-0.197,1.199-0.354,1.767-0.468V26.538c-0.653-0.113-1.277-0.276-1.873-0.489
		c-0.596-0.213-1.135-0.461-1.617-0.745v-1.617h5.363c1.134,0,2.433-0.057,3.894-0.17c1.461-0.113,2.802-0.171,4.022-0.171
		c1.503,0,2.972,0.149,4.405,0.447c1.433,0.298,2.709,0.802,3.831,1.511c1.121,0.71,2.021,1.653,2.703,2.83
		c0.681,1.178,1.021,2.646,1.021,4.405c0,1.675-0.334,3.121-1,4.341c-0.668,1.221-1.555,2.228-2.66,3.022
		c-1.107,0.794-2.384,1.383-3.831,1.766c-1.447,0.383-2.937,0.574-4.469,0.574c-0.142,0-0.369,0-0.681,0
		c-0.312,0-0.646-0.006-1-0.021c-0.355-0.015-0.695-0.028-1.021-0.043c-0.326-0.014-0.561-0.035-0.702-0.063V50.627z M32.07,26.112
		c-0.568,0-1.015,0.021-1.341,0.064c-0.326,0.042-0.646,0.105-0.958,0.191v12.938c0.255,0.086,0.638,0.136,1.149,0.149
		c0.511,0.015,0.922,0.021,1.234,0.021c0.766,0,1.503-0.128,2.213-0.384c0.708-0.255,1.34-0.652,1.894-1.191
		c0.554-0.538,1-1.234,1.341-2.085c0.34-0.852,0.511-1.873,0.511-3.064c0-2.27-0.553-3.943-1.66-5.022
		C35.347,26.651,33.886,26.112,32.07,26.112z"/>
	<path fill="#295BCC" d="M47.434,23.687h13.109v1.617c-0.455,0.284-0.965,0.539-1.532,0.767c-0.567,0.227-1.136,0.383-1.702,0.468
		v21.791c0,2.326-0.348,4.234-1.043,5.724c-0.695,1.49-1.519,2.667-2.469,3.533c-0.951,0.865-1.922,1.496-2.915,1.894
		s-1.802,0.666-2.427,0.809l-0.809-1.106c0.426-0.341,0.838-0.773,1.234-1.298c0.397-0.525,0.745-1.199,1.043-2.021
		c0.299-0.823,0.539-1.824,0.724-3.001s0.276-2.603,0.276-4.277V26.538c-0.624-0.142-1.241-0.305-1.852-0.489
		c-0.609-0.185-1.156-0.433-1.639-0.745V23.687z"/>
</g>
</svg>
