<?xml version="1.0" encoding="utf-8"?>
<!-- Generator: Adobe Illustrator 16.0.4, SVG Export Plug-In . SVG Version: 6.00 Build 0)  -->
<!DOCTYPE svg PUBLIC "-//W3C//DTD SVG 1.1//EN" "http://www.w3.org/Graphics/SVG/1.1/DTD/svg11.dtd">
<svg version="1.1" id="Layer_1" xmlns="http://www.w3.org/2000/svg" xmlns:xlink="http://www.w3.org/1999/xlink" x="0px" y="0px"
	 width="40.581px" height="34.744px" viewBox="0 0 40.581 34.744" enable-background="new 0 0 40.581 34.744" xml:space="preserve">
<g>
	<path fill="#5079E2" d="M34.329,21.182H14.235c-0.715,0-1.33-0.504-1.471-1.205l-2.406-12c-0.088-0.441,0.025-0.898,0.311-1.246
		c0.285-0.348,0.71-0.549,1.16-0.549h26.75c0.487,0,0.944,0.236,1.225,0.634c0.281,0.398,0.352,0.907,0.189,1.367l-4.25,12
		C35.531,20.781,34.964,21.182,34.329,21.182z M15.464,18.182h17.805l3.188-9H13.659L15.464,18.182z"/>
</g>
<g>
	<path fill="#5079E2" d="M30.579,28.182h-20c-0.71,0-1.323-0.498-1.468-1.193C8.975,26.34,5.783,11.062,5.159,7.069
		c-0.396-2.532-2.328-2.693-2.711-2.7C1.627,4.355,0.96,3.59,0.964,2.769C0.968,1.948,1.62,1.182,2.44,1.182
		c0.011,0,0.022,0,0.034,0c1.691,0,5,1.183,5.648,5.331c0.513,3.279,2.895,14.91,3.675,18.669h18.78c0.828,0,1.5,0.672,1.5,1.5
		S31.407,28.182,30.579,28.182z"/>
</g>
<circle fill="#5079E2" cx="12.413" cy="31.932" r="1.833"/>
<circle fill="#5079E2" cx="28.413" cy="31.932" r="1.833"/>
</svg>
