<?xml version="1.0" encoding="utf-8"?>
<!-- Generator: Adobe Illustrator 16.0.4, SVG Export Plug-In . SVG Version: 6.00 Build 0)  -->
<!DOCTYPE svg PUBLIC "-//W3C//DTD SVG 1.1//EN" "http://www.w3.org/Graphics/SVG/1.1/DTD/svg11.dtd">
<svg version="1.1" id="Layer_1" xmlns="http://www.w3.org/2000/svg" xmlns:xlink="http://www.w3.org/1999/xlink" x="0px" y="0px"
	 width="40.582px" height="34.744px" viewBox="0 0 40.582 34.744" enable-background="new 0 0 40.582 34.744" xml:space="preserve">
<g>
	<path fill="#295BCC" d="M34.33,21.183H14.235c-0.715,0-1.33-0.505-1.471-1.205l-2.406-12c-0.088-0.441,0.025-0.898,0.311-1.246
		c0.285-0.348,0.71-0.549,1.16-0.549h26.75c0.486,0,0.943,0.236,1.225,0.634s0.352,0.907,0.189,1.367l-4.25,12
		C35.531,20.781,34.964,21.183,34.33,21.183z M15.464,18.183h17.805l3.188-9H13.659L15.464,18.183z"/>
</g>
<g>
	<path fill="#295BCC" d="M30.58,28.183h-20c-0.71,0-1.323-0.498-1.468-1.193C8.975,26.34,5.783,11.062,5.159,7.069
		c-0.396-2.532-2.328-2.693-2.711-2.7C1.627,4.355,0.96,3.59,0.964,2.769S1.62,1.182,2.44,1.182c0.011,0,0.022,0,0.034,0
		c1.691,0,5,1.183,5.648,5.331c0.513,3.279,2.895,14.91,3.675,18.669h18.781c0.827,0,1.5,0.672,1.5,1.5
		C32.078,27.51,31.408,28.183,30.58,28.183z"/>
</g>
<circle fill="#295BCC" cx="12.413" cy="31.932" r="1.833"/>
<circle fill="#295BCC" cx="28.414" cy="31.932" r="1.833"/>
</svg>
